<svg width="22" height="22" viewBox="0 0 22 22" fill="none" xmlns="http://www.w3.org/2000/svg">
<g id="Icon">
<path id="Icon_2" fill-rule="evenodd" clip-rule="evenodd" d="M12.0135 16.0393L12.0135 7.99688L15.5271 11.5105C15.8079 11.7913 16.2687 11.7913 16.5495 11.5105C16.8303 11.2297 16.8303 10.7761 16.5495 10.4953L11.8047 5.75048C11.5239 5.46968 11.0703 5.46968 10.7895 5.75048L6.0447 10.4953C5.7639 10.7761 5.7639 11.2297 6.0447 11.5105C6.17922 11.6453 6.36185 11.7211 6.5523 11.7211C6.74276 11.7211 6.92538 11.6453 7.0599 11.5105L10.5735 7.99688L10.5735 16.0393C10.5735 16.4353 10.8975 16.7593 11.2935 16.7593C11.6895 16.7593 12.0135 16.4353 12.0135 16.0393Z" fill="#C3CAD9"/>
</g>
</svg>
