<svg width="22" height="22" viewBox="0 0 22 22" fill="none" xmlns="http://www.w3.org/2000/svg">
<g id="Icon">
<path id="Icon_2" fill-rule="evenodd" clip-rule="evenodd" d="M9.98662 5.95975V14.0021L6.47302 10.4885C6.19222 10.2077 5.73142 10.2077 5.45062 10.4885C5.16982 10.7693 5.16982 11.2229 5.45062 11.5037L10.1954 16.2485C10.4762 16.5293 10.9298 16.5293 11.2106 16.2485L15.9554 11.5037C16.2362 11.2229 16.2362 10.7693 15.9554 10.4885C15.8209 10.3537 15.6383 10.278 15.4478 10.278C15.2574 10.278 15.0747 10.3537 14.9402 10.4885L11.4266 14.0021V5.95975C11.4266 5.56375 11.1026 5.23975 10.7066 5.23975C10.3106 5.23975 9.98662 5.56375 9.98662 5.95975Z" fill="#C3CAD9"/>
</g>
</svg>
