<svg width="18" height="19" viewBox="0 0 18 19" fill="none" xmlns="http://www.w3.org/2000/svg">
<path fill-rule="evenodd" clip-rule="evenodd" d="M9 0.25C4.032 0.25 0 4.282 0 9.25C0 14.218 4.032 18.25 9 18.25C13.968 18.25 18 14.218 18 9.25C18 4.282 13.968 0.25 9 0.25ZM9 2.95C10.494 2.95 11.7 4.156 11.7 5.65C11.7 7.144 10.494 8.35 9 8.35C7.506 8.35 6.3 7.144 6.3 5.65C6.3 4.156 7.506 2.95 9 2.95ZM9 15.7286C6.75 15.7286 4.761 14.5766 3.6 12.8306C3.627 11.0396 7.2 10.0586 9 10.0586C10.791 10.0586 14.373 11.0396 14.4 12.8306C13.239 14.5766 11.25 15.7286 9 15.7286Z" fill="#C3CAD9"/>
</svg>
