<svg width="69" height="68" viewBox="0 0 69 68" fill="none" xmlns="http://www.w3.org/2000/svg">
<g filter="url(#filter0_d_1878_133051)">
<rect x="5.5" y="3" width="58" height="58" rx="29" fill="#006F93"/>
<path fill-rule="evenodd" clip-rule="evenodd" d="M34.1013 37.1285L37.8363 39.3875C38.5203 39.8015 39.3573 39.1895 39.1773 38.4155L38.1873 34.1675L41.4903 31.3055C42.0933 30.7835 41.7693 29.7935 40.9773 29.7305L36.6303 29.3615L34.9293 25.3475C34.6233 24.6185 33.5793 24.6185 33.2733 25.3475L31.5723 29.3525L27.2253 29.7215C26.4333 29.7845 26.1093 30.7745 26.7123 31.2965L30.0153 34.1585L29.0253 38.4065C28.8453 39.1805 29.6823 39.7925 30.3663 39.3785L34.1013 37.1285Z" fill="white"/>
</g>
<defs>
<filter id="filter0_d_1878_133051" x="0.5" y="0" width="68" height="68" filterUnits="userSpaceOnUse" color-interpolation-filters="sRGB">
<feFlood flood-opacity="0" result="BackgroundImageFix"/>
<feColorMatrix in="SourceAlpha" type="matrix" values="0 0 0 0 0 0 0 0 0 0 0 0 0 0 0 0 0 0 127 0" result="hardAlpha"/>
<feOffset dy="2"/>
<feGaussianBlur stdDeviation="2.5"/>
<feColorMatrix type="matrix" values="0 0 0 0 0.14902 0 0 0 0 0.2 0 0 0 0 0.301961 0 0 0 0.05 0"/>
<feBlend mode="normal" in2="BackgroundImageFix" result="effect1_dropShadow_1878_133051"/>
<feBlend mode="normal" in="SourceGraphic" in2="effect1_dropShadow_1878_133051" result="shape"/>
</filter>
</defs>
</svg>
