<svg width="25" height="25" viewBox="0 0 25 25" fill="none" xmlns="http://www.w3.org/2000/svg">
<path d="M20.75 5H4.25C4.05115 5 3.86035 5.0791 3.71973 5.21973C3.5791 5.36035 3.5 5.55115 3.5 5.75V19.25C3.5 19.4489 3.5791 19.6396 3.71973 19.7803C3.86035 19.9209 4.05115 20 4.25 20H20.75C20.9489 20 21.1396 19.9209 21.2803 19.7803C21.4209 19.6396 21.5 19.4489 21.5 19.25V5.75C21.5 5.55115 21.4209 5.36035 21.2803 5.21973C21.1396 5.0791 20.9489 5 20.75 5Z" fill="#008146" fill-opacity="0.1"/>
<path d="M8.57143 9H16.4286C17.2964 9 18 8.55228 18 8C18 7.44772 17.2964 7 16.4286 7H8.57143C7.70355 7 7 7.44772 7 8C7 8.55228 7.70355 9 8.57143 9Z" fill="#008146"/>
<path d="M8.57143 13H16.4286C17.2964 13 18 12.5523 18 12C18 11.4477 17.2964 11 16.4286 11H8.57143C7.70355 11 7 11.4477 7 12C7 12.5523 7.70355 13 8.57143 13Z" fill="#008146"/>
<path d="M8.57143 17H16.4286C17.2964 17 18 16.5523 18 16C18 15.4477 17.2964 15 16.4286 15H8.57143C7.70355 15 7 15.4477 7 16C7 16.5523 7.70355 17 8.57143 17Z" fill="#008146"/>
<path fill-rule="evenodd" clip-rule="evenodd" d="M2.75 5.75C2.75 5.75 2.75 5.12868 3.18934 4.68934C3.18934 4.68934 3.62868 4.25 4.25 4.25H20.75C20.75 4.25 21.3713 4.25 21.8107 4.68934C21.8107 4.68934 22.25 5.12868 22.25 5.75V19.25C22.25 19.25 22.25 19.8713 21.8107 20.3107C21.8107 20.3107 21.3713 20.75 20.75 20.75H4.25C4.25 20.75 3.62868 20.75 3.18934 20.3107C3.18934 20.3107 2.75 19.8713 2.75 19.25V5.75ZM4.25 5.75V19.25H20.75V5.75H4.25Z" fill="#008146"/>
</svg>
