<svg width="18" height="18" viewBox="0 0 18 18" fill="none" xmlns="http://www.w3.org/2000/svg">
<path fill-rule="evenodd" clip-rule="evenodd" d="M11.6994 8.12463V3.47163C11.6994 2.99463 11.5104 2.53563 11.1684 2.20263L9.62941 0.663628C9.46126 0.4951 9.23298 0.400391 8.99491 0.400391C8.75685 0.400391 8.52856 0.4951 8.36041 0.663628L6.83041 2.19363C6.48841 2.53563 6.29941 2.99463 6.29941 3.47163V4.52463H2.69941C1.70941 4.52463 0.899414 5.33463 0.899414 6.32463V15.3246C0.899414 16.3146 1.70941 17.1246 2.69941 17.1246H15.2994C16.2894 17.1246 17.0994 16.3146 17.0994 15.3246V9.92463C17.0994 8.93463 16.2894 8.12463 15.2994 8.12463H11.6994ZM4.49941 15.3242H2.69941V13.5242H4.49941V15.3242ZM4.49941 11.7242H2.69941V9.92422H4.49941V11.7242ZM4.49941 8.12422H2.69941V6.32422H4.49941V8.12422ZM9.89941 15.3242H8.09941V13.5242H9.89941V15.3242ZM9.89941 11.7242H8.09941V9.92422H9.89941V11.7242ZM9.89941 8.12422H8.09941V6.32422H9.89941V8.12422ZM9.89941 4.52422H8.09941V2.72422H9.89941V4.52422ZM15.2994 15.3242H13.4994V13.5242H15.2994V15.3242ZM15.2994 11.7242H13.4994V9.92422H15.2994V11.7242Z" fill="#C3CAD9"/>
</svg>
