<svg width="25" height="25" viewBox="0 0 25 25" fill="none" xmlns="http://www.w3.org/2000/svg">
<path d="M9.24695 10.25H3.5V6.5C3.5 6.30106 3.5791 6.11035 3.71973 5.96964C3.86035 5.82901 4.05115 5.75 4.25 5.75H9.24695C9.409 5.75064 9.56665 5.80319 9.69684 5.89996L12.5 8L9.69684 10.1C9.56665 10.1968 9.409 10.2494 9.24695 10.25Z" fill="black" fill-opacity="0.1"/>
<path d="M4.25 19.25V10.25C4.25 9.83579 3.91421 9.5 3.5 9.5C3.08579 9.5 2.75 9.83579 2.75 10.25V19.25C2.75 19.8713 3.18934 20.3107 3.18934 20.3107C3.62868 20.75 4.25 20.75 4.25 20.75H20.75C21.3713 20.75 21.8107 20.3107 21.8107 20.3107C22.25 19.8713 22.25 19.25 22.25 19.25V8.75C22.25 8.12868 21.8107 7.68934 21.8107 7.68934C21.3713 7.25 20.75 7.25 20.75 7.25H12.5C12.0858 7.25 11.75 7.58579 11.75 8C11.75 8.41421 12.0858 8.75 12.5 8.75H20.75V19.25H4.25Z" fill="#C3CAD9"/>
<path fill-rule="evenodd" clip-rule="evenodd" d="M10.1444 10.7018C10.1444 10.7018 9.74649 10.9977 9.2507 11L9.24999 11L9.24688 11H3.5C3.08579 11 2.75 10.6642 2.75 10.25V6.5C2.75 6.5 2.75 5.87868 3.18934 5.43934C3.18934 5.43934 3.62868 5 4.25 5L9.24996 5.00001C9.24996 5.00001 9.74619 5.00205 10.1466 5.29976L12.9497 7.39976C13.0068 7.44253 13.0575 7.49323 13.1002 7.55032C13.2195 7.70952 13.2706 7.90957 13.2424 8.10646C13.2142 8.30336 13.1089 8.48098 12.9497 8.60024L10.1444 10.7018ZM9.24411 9.5C9.24411 9.5 9.247 9.4999 9.24935 9.49815L11.2491 8L9.2472 6.50024C9.2472 6.50024 9.24687 6.50001 9.24379 6.49999L4.25 6.5V9.5H9.24411Z" fill="#C3CAD9"/>
</svg>
