<svg width="18" height="19" viewBox="0 0 18 19" fill="none" xmlns="http://www.w3.org/2000/svg">
<path fillRule="evenodd" clipRule="evenodd" d="M9 0.5C4.032 0.5 0 4.532 0 9.5C0 14.468 4.032 18.5 9 18.5C13.968 18.5 18 14.468 18 9.5C18 4.532 13.968 0.5 9 0.5ZM8.1 16.6378C4.545 16.1968 1.8 13.1728 1.8 9.50084C1.8 8.94284 1.872 8.41184 1.989 7.88984L6.3 12.2008V13.1008C6.3 14.0908 7.11 14.9008 8.1 14.9008V16.6378ZM14.31 14.3509C14.076 13.6219 13.41 13.0999 12.6 13.0999H11.7V10.3999C11.7 9.90486 11.295 9.49986 10.8 9.49986H5.4V7.69986H7.2C7.695 7.69986 8.1 7.29486 8.1 6.79986V4.99986H9.9C10.89 4.99986 11.7 4.18986 11.7 3.19986V2.83086C14.337 3.90186 16.2 6.48486 16.2 9.49986C16.2 11.3719 15.48 13.0729 14.31 14.3509Z" fill="#C3CAD9"/>
</svg>
