<svg width="25" height="25" viewBox="0 0 25 25" fill="none" xmlns="http://www.w3.org/2000/svg">
<path fill-rule="evenodd" clip-rule="evenodd" d="M4.25 5H20.75C20.9489 5 21.1396 5.0791 21.2803 5.21973C21.4209 5.36035 21.5 5.55115 21.5 5.75V19.25C21.5 19.4489 21.4209 19.6396 21.2803 19.7803C21.1396 19.9209 20.9489 20 20.75 20H4.25C4.05115 20 3.86035 19.9209 3.71973 19.7803C3.5791 19.6396 3.5 19.4489 3.5 19.25V5.75C3.5 5.55115 3.5791 5.36035 3.71973 5.21973C3.86035 5.0791 4.05115 5 4.25 5ZM7.88428 13.6208C8.25433 13.868 8.68939 14 9.13434 14C9.43024 14.0013 9.72339 13.944 9.99695 13.8312C10.2705 13.7186 10.519 13.5529 10.7281 13.3438C10.9374 13.1346 11.1029 12.886 11.2157 12.6124C11.3283 12.3391 11.3856 12.0459 11.3843 11.75C11.3843 11.3051 11.2525 10.87 11.0051 10.4999C10.7579 10.1299 10.4066 9.84149 9.99548 9.6712C9.58423 9.50092 9.13196 9.45642 8.69543 9.54321C8.25891 9.63 7.85809 9.84442 7.54333 10.159C7.22876 10.4738 7.01434 10.8746 6.92755 11.3111C6.84076 11.7474 6.88544 12.1999 7.05573 12.611C7.22601 13.0222 7.5144 13.3736 7.88428 13.6208Z" fill="#DAF9FF"/>
<path d="M14.75 11.75H18.5C18.9142 11.75 19.25 11.4142 19.25 11C19.25 10.5858 18.9142 10.25 18.5 10.25H14.75C14.3358 10.25 14 10.5858 14 11C14 11.4142 14.3358 11.75 14.75 11.75Z" fill="#008146"/>
<path d="M14.75 14.75H18.5C18.9142 14.75 19.25 14.4142 19.25 14C19.25 13.5858 18.9142 13.25 18.5 13.25H14.75C14.3358 13.25 14 13.5858 14 14C14 14.4142 14.3358 14.75 14.75 14.75Z" fill="#008146"/>
<path fill-rule="evenodd" clip-rule="evenodd" d="M9.1344 8.75C9.1344 8.75 10.377 8.75 11.2557 9.62868C11.2557 9.62868 12.1344 10.5074 12.1344 11.75C12.1344 11.75 12.1344 12.9926 11.2557 13.8713C11.2557 13.8713 10.377 14.75 9.1344 14.75C9.1344 14.75 7.89176 14.75 7.01308 13.8713C7.01308 13.8713 6.1344 12.9926 6.1344 11.75C6.1344 11.75 6.1344 10.5074 7.01308 9.62868C7.01308 9.62868 7.89176 8.75 9.1344 8.75ZM9.1344 10.25C9.1344 10.25 8.51308 10.25 8.07374 10.6893C8.07374 10.6893 7.6344 11.1287 7.6344 11.75C7.6344 11.75 7.6344 12.3713 8.07374 12.8107C8.07374 12.8107 8.51308 13.25 9.1344 13.25C9.1344 13.25 9.75572 13.25 10.1951 12.8107C10.1951 12.8107 10.6344 12.3713 10.6344 11.75C10.6344 11.75 10.6344 11.1287 10.1951 10.6893C10.1951 10.6893 9.75572 10.25 9.1344 10.25Z" fill="#008146"/>
<path d="M10.514 15.2168C11.1223 15.6889 11.3137 16.4346 11.3137 16.4346L11.3139 16.4353L11.3141 16.4361C11.3991 16.7679 11.6981 17 12.0406 17L12.0557 16.9999C12.1134 16.9987 12.1708 16.9909 12.2267 16.9766C12.5585 16.8916 12.7906 16.5926 12.7906 16.25L12.7905 16.2349C12.7893 16.1773 12.7815 16.1199 12.7672 16.064C12.4486 14.8195 11.4338 14.0318 11.4338 14.0318C10.419 13.2441 9.1344 13.2441 9.1344 13.2441C7.84978 13.2441 6.835 14.0318 6.835 14.0318C5.82022 14.8195 5.50159 16.064 5.50159 16.064C5.48602 16.1248 5.47815 16.1873 5.47815 16.25C5.47815 16.2607 5.47838 16.2714 5.47883 16.282C5.48411 16.4055 5.51984 16.5259 5.58285 16.6322C5.68422 16.8034 5.84942 16.9272 6.04212 16.9766C6.10291 16.9921 6.1654 17 6.22815 17C6.23882 17 6.24948 16.9998 6.26014 16.9993C6.38367 16.9941 6.50398 16.9583 6.61036 16.8953C6.78151 16.794 6.90537 16.6287 6.95471 16.4361C7.14589 15.6894 7.75476 15.2168 7.75476 15.2168C8.36363 14.7441 9.1344 14.7441 9.1344 14.7441C9.90517 14.7441 10.514 15.2168 10.514 15.2168Z" fill="#008146"/>
<path fill-rule="evenodd" clip-rule="evenodd" d="M2.75 5.75C2.75 5.75 2.75 5.12868 3.18934 4.68934C3.18934 4.68934 3.62868 4.25 4.25 4.25H20.75C20.75 4.25 21.3713 4.25 21.8107 4.68934C21.8107 4.68934 22.25 5.12868 22.25 5.75V19.25C22.25 19.25 22.25 19.8713 21.8107 20.3107C21.8107 20.3107 21.3713 20.75 20.75 20.75H4.25C4.25 20.75 3.62868 20.75 3.18934 20.3107C3.18934 20.3107 2.75 19.8713 2.75 19.25V5.75ZM4.25 5.75V19.25H20.75V5.75H4.25Z" fill="#008146"/>
</svg>
