<svg width="25" height="25" viewBox="0 0 25 25" fill="none" xmlns="http://www.w3.org/2000/svg">
<path d="M21.5 5.75H15.5C14.7044 5.75 13.9413 6.06604 13.3787 6.62872C12.8161 7.19122 12.5 7.95441 12.5 8.75C12.5 7.95441 12.1839 7.19122 11.6213 6.62872C11.0587 6.06604 10.2956 5.75 9.5 5.75H3.5C3.3011 5.75 3.11031 5.8291 2.96968 5.96973C2.82901 6.11035 2.75 6.30115 2.75 6.5V18.5C2.75 18.6989 2.82901 18.8896 2.96968 19.0303C3.11031 19.1709 3.3011 19.25 3.5 19.25H9.5C10.2956 19.25 11.0587 19.566 11.6213 20.1287C12.1839 20.6912 12.5 21.4544 12.5 22.25C12.5 21.4544 12.8161 20.6912 13.3787 20.1287C13.9413 19.566 14.7044 19.25 15.5 19.25H21.5C21.6989 19.25 21.8897 19.1709 22.0303 19.0303C22.171 18.8896 22.25 18.6989 22.25 18.5V6.5C22.25 6.30115 22.171 6.11035 22.0303 5.96973C21.8897 5.8291 21.6989 5.75 21.5 5.75Z" fill="black" fill-opacity="0.1"/>
<path d="M12.8484 19.5983C11.75 20.6967 11.75 22.25 11.75 22.25C11.75 22.6642 12.0858 23 12.5 23C12.9142 23 13.25 22.6642 13.25 22.25C13.25 21.318 13.909 20.659 13.909 20.659C14.568 20 15.5 20 15.5 20H21.5C22.1213 20 22.5607 19.5607 22.5607 19.5607C23 19.1213 23 18.5 23 18.5V6.5C23 5.87868 22.5607 5.43934 22.5607 5.43934C22.1213 5 21.5 5 21.5 5H15.5C13.9467 5 12.8484 6.09835 12.8484 6.09835C11.75 7.1967 11.75 8.75 11.75 8.75C11.75 9.16421 12.0858 9.5 12.5 9.5C12.6989 9.5 12.8897 9.42098 13.0303 9.28033C13.171 9.13968 13.25 8.94891 13.25 8.75C13.25 7.81802 13.909 7.15901 13.909 7.15901C14.568 6.5 15.5 6.5 15.5 6.5H21.5V18.5H15.5C13.9467 18.5 12.8484 19.5983 12.8484 19.5983Z" fill="#C3CAD9"/>
<path fill-rule="evenodd" clip-rule="evenodd" d="M2 6.5C2 6.5 2 5.87868 2.43934 5.43934C2.43934 5.43934 2.87868 5 3.5 5H9.5C9.5 5 11.0533 5 12.1517 6.09835C12.1517 6.09835 13.25 7.1967 13.25 8.75V22.25C13.25 22.6642 12.9142 23 12.5 23C12.0858 23 11.75 22.6642 11.75 22.25C11.75 22.25 11.75 21.318 11.091 20.659C11.091 20.659 10.432 20 9.5 20H3.5C3.5 20 2.87868 20 2.43934 19.5607C2.43934 19.5607 2 19.1213 2 18.5V6.5ZM11.75 8.75V19.245C11.75 19.245 10.7793 18.5 9.5 18.5H3.5V6.5H9.5C9.5 6.5 10.432 6.5 11.091 7.15901C11.091 7.15901 11.75 7.81802 11.75 8.75Z" fill="#C3CAD9"/>
</svg>
