<svg width="12" height="121" viewBox="0 0 12 121" fill="none" xmlns="http://www.w3.org/2000/svg">
<g clip-path="url(#clip0_2160_116262)">
<g opacity="0.8">
<path fill-rule="evenodd" clip-rule="evenodd" d="M68.2499 93.9912C68.2497 93.9499 68.2493 93.9086 68.2488 93.8673L68.2495 93.8673L68.2495 72.166C67.4341 72.1314 66.6111 72.1138 65.7814 72.1138C46.3629 72.1138 30.6211 81.7449 30.6211 93.6255C30.6211 93.7062 30.6219 93.7868 30.6233 93.8673L-3.74826 93.8673C-3.74882 93.9086 -3.74919 93.9499 -3.74937 93.9912L-3.74948 93.9912L-3.74948 72.1137L68.25 72.1137L68.25 93.9912L68.2499 93.9912Z" fill="#34312D"/>
<path fill-rule="evenodd" clip-rule="evenodd" d="M68.2488 93.7422C68.2496 93.8012 68.25 93.8603 68.25 93.9194C68.25 105.63 52.1324 115.122 32.2503 115.122C12.3682 115.122 -3.74948 105.63 -3.74948 93.9194C-3.74948 93.8603 -3.74907 93.8012 -3.74825 93.7422L68.2488 93.7422Z" fill="#FDE166"/>
<path fill-rule="evenodd" clip-rule="evenodd" d="M33.6899 115.146C33.2127 115.157 32.7331 115.163 32.2512 115.163C12.5655 115.163 -3.42978 105.605 -3.74381 93.7422L-3.74979 93.7422L-3.74979 137L33.4857 137L33.4857 115.163L33.6899 115.163L33.6899 115.146Z" fill="#4281A4"/>
</g>
<g opacity="0.8">
<path fill-rule="evenodd" clip-rule="evenodd" d="M-3.74989 29.866C-3.74971 29.825 -3.74934 29.784 -3.74877 29.743L33.8783 29.743C33.8787 29.7032 33.8789 29.6633 33.8789 29.6233C33.8789 17.7197 18.2384 8.06261 -1.09376 8.0005L41.8835 8.0005L41.8835 8.00029L-3.75 8.00029L-3.75 29.866L-3.74989 29.866ZM-3.74964 30.0156C-3.74972 30.005 -3.74979 29.9943 -3.74984 29.9837C-3.74985 29.9863 -3.74987 29.9888 -3.74988 29.9914L-3.75 29.9914L-3.75 30.0156L-3.74964 30.0156ZM-1.46901 8.0005C-2.23539 8.00296 -2.99597 8.0205 -3.75 8.05266L-3.75 8.0005L-1.46901 8.0005Z" fill="#FBCA7D"/>
<path fill-rule="evenodd" clip-rule="evenodd" d="M34.7849 50.9308L34.7849 50.9824L32.3659 50.9824C33.1789 50.9809 33.9855 50.9635 34.7849 50.9308ZM32.1335 50.9824L-3.75 50.9824L-3.75 30.0154L-3.74781 30.0154C-3.53338 41.5941 12.4385 50.9458 32.1335 50.9824Z" fill="#F0FFFF"/>
<path fill-rule="evenodd" clip-rule="evenodd" d="M-3.74988 29.9912C-3.7497 29.95 -3.74933 29.9087 -3.74877 29.8675L-3.74951 29.8675L-3.74951 8.16631C-2.93414 8.13172 -2.11111 8.11413 -1.28138 8.11413C18.1371 8.11413 33.8789 17.7452 33.8789 29.6258C33.8789 29.7064 33.8781 29.7869 33.8767 29.8673L68.2483 29.8673C68.2488 29.9086 68.2492 29.9499 68.2494 29.9912L68.2495 29.9912L68.2495 8.11366L-3.75 8.11367L-3.75 29.9912L-3.74988 29.9912Z" fill="#34312D"/>
<rect x="-3.75" y="73" width="22.0153" height="38" transform="rotate(-90 -3.75 73)" fill="#BB70DF"/>
<path fill-rule="evenodd" clip-rule="evenodd" d="M-3.74877 29.7432C-3.74959 29.8021 -3.75 29.8612 -3.75 29.9203C-3.75 41.6304 12.3676 51.1234 32.2497 51.1234C52.1318 51.1234 68.2495 41.6304 68.2495 29.9203C68.2495 29.8612 68.2491 29.8021 68.2483 29.7432L-3.74877 29.7432Z" fill="#FDE166"/>
</g>
</g>
<defs>
<clipPath id="clip0_2160_116262">
<path d="M0.25 121L0.249995 0L3.25 -1.31134e-07C7.66828 -3.24263e-07 11.25 3.58172 11.25 8L11.25 113C11.25 117.418 7.66828 121 3.25 121L0.25 121Z" fill="white"/>
</clipPath>
</defs>
</svg>
