<svg width="800" height="158" viewBox="0 0 800 158" fill="none" xmlns="http://www.w3.org/2000/svg">
<rect width="2016.11" height="190.001" transform="translate(-592)" fill="white"/>
<g opacity="0.8">
<path fill-rule="evenodd" clip-rule="evenodd" d="M-31.9783 0.000299674C-31.765 0.000756155 -31.5518 0.0017339 -31.3388 0.00323151L-31.3388 99.2972C-31.1313 99.2981 -30.9236 99.2986 -30.7159 99.2986C31.2082 99.2986 81.4481 58.0448 81.7951 7.04625L81.7951 120.422L81.7961 120.422L81.7961 3.17047e-08L81.7951 0L81.7951 5.98295C81.7815 3.97285 81.6903 1.97789 81.5239 0L-31.9783 -3.29475e-08L-31.9783 0.000299674ZM-32.7573 0.000950833C-32.7082 0.000763475 -32.659 0.000603785 -32.6099 0.000471781C-32.617 0.0004554 -32.6241 0.000439564 -32.6311 0.000424274L-32.6311 -5.33641e-09L-32.7573 0L-32.7573 0.000950833Z" fill="#FBCA7D"/>
<path fill-rule="evenodd" clip-rule="evenodd" d="M-32.6313 0.000321385C-32.4159 0.000787948 -32.2007 0.0017623 -31.9856 0.00324312V0.000969951L80.9325 0.000966597C81.1126 2.15282 81.2041 4.32487 81.2041 6.51464C81.2041 57.7578 31.09 99.2986 -30.7288 99.2986C-31.1482 99.2986 -31.5671 99.2967 -31.9854 99.2929V189.995C-32.2006 189.997 -32.4159 189.998 -32.6313 189.998V189.999H81.2051V0L-32.6313 0V0.000321385Z" fill="#34312D"/>
</g>
<g opacity="0.8">
<path fill-rule="evenodd" clip-rule="evenodd" d="M192.931 190C192.717 189.999 192.504 189.998 192.29 189.997L192.29 90.703C192.083 90.7021 191.876 90.7016 191.668 90.7016C129.716 90.7016 79.4582 131.994 79.1572 183.025L79.1572 183.946C79.1692 185.98 79.2606 187.999 79.4289 190L192.931 190L192.931 190ZM193.71 189.999C193.655 189.999 193.599 189.999 193.543 190C193.556 190 193.569 190 193.583 190L193.583 190L193.71 190L193.71 189.999Z" fill="#FBCA7D"/>
<path fill-rule="evenodd" clip-rule="evenodd" d="M302.54 88.3106L302.809 88.3106L302.809 94.9043C302.807 92.6878 302.716 90.4891 302.54 88.3106ZM302.809 95.0971L302.809 190L193.711 190L193.711 189.994C254.039 189.427 302.749 147.166 302.809 95.0971Z" fill="#F0FFFF"/>
<path fill-rule="evenodd" clip-rule="evenodd" d="M193.583 190C193.368 189.999 193.153 189.998 192.939 189.997V189.999L80.0191 189.999C79.8391 187.847 79.7476 185.675 79.7476 183.486C79.7476 132.242 129.862 90.7016 191.68 90.7016C192.1 90.7016 192.52 90.7035 192.939 90.7073V0.00462341C193.153 0.00314331 193.368 0.00216675 193.583 0.00169373V0.00137329H79.7463V190H193.583V190Z" fill="#34312D"/>
<rect x="417.375" y="190" width="113.836" height="93.3708" transform="rotate(180 417.375 190)" fill="#BB70DF"/>
<path fill-rule="evenodd" clip-rule="evenodd" d="M192.291 189.997C192.597 189.999 192.904 190 193.212 190C254.144 190 303.539 147.467 303.539 95.0007C303.539 42.534 254.144 0.00137553 193.212 0.00137332C192.904 0.00137331 192.597 0.00244142 192.291 0.00460815L192.291 189.997Z" fill="#FDE166"/>
<path fill-rule="evenodd" clip-rule="evenodd" d="M192.29 0.0158081C254.016 0.844231 303.75 43.0541 303.75 95.0027C303.75 96.2744 303.72 97.5403 303.661 98.7998H303.751V98.2607H417.375V0.000511169H192.29V0.0158081Z" fill="#4281A4"/>
</g>
<g opacity="0.8">
<path fill-rule="evenodd" clip-rule="evenodd" d="M639.178 190.001C639.393 190 639.607 189.999 639.821 189.998L639.821 90.704C640.028 90.703 640.235 90.7026 640.441 90.7026C702.58 90.7026 752.954 132.243 752.954 183.487C752.954 185.677 752.862 187.849 752.681 190.001L639.178 190.001L639.178 190.001ZM638.401 190C638.457 190 638.513 190 638.569 190.001C638.556 190.001 638.542 190.001 638.529 190.001L638.529 190.001L638.401 190.001L638.401 190Z" fill="#FBCA7D"/>
<path fill-rule="evenodd" clip-rule="evenodd" d="M529.302 190.001L638.401 190.001L638.401 189.995C578.035 189.428 529.303 147.115 529.303 95.0017C529.303 92.7525 529.393 90.5216 529.572 88.3116L529.302 88.3116L529.302 190.001Z" fill="#F0FFFF"/>
<path fill-rule="evenodd" clip-rule="evenodd" d="M639.173 0.00559998V90.7083C639.592 90.7045 640.011 90.7026 640.432 90.7026C702.25 90.7026 752.364 132.243 752.364 183.487C752.364 185.677 752.273 187.849 752.093 190.001H752.365V0.00234985H638.529V0.00267029C638.744 0.00314331 638.958 0.00411987 639.173 0.00559998ZM639.173 190.001H638.529V190.001C638.744 190 638.958 189.999 639.173 189.998V190.001Z" fill="#34312D"/>
<rect width="113.836" height="93.3708" transform="matrix(1 0 0 -1 414.736 190.001)" fill="#BB70DF"/>
<path fill-rule="evenodd" clip-rule="evenodd" d="M639.821 189.998C639.514 190 639.207 190.001 638.9 190.001C577.968 190.001 528.573 147.468 528.573 95.0017C528.573 42.535 577.968 0.00235209 638.9 0.00234989C639.207 0.00234988 639.514 0.00343324 639.821 0.00559998L639.821 189.998Z" fill="#FDE166"/>
<path fill-rule="evenodd" clip-rule="evenodd" d="M639.822 0.0147552C578.095 0.843094 528.361 43.0529 528.361 95.0017C528.361 96.2737 528.391 97.5399 528.45 98.7998H528.361V98.2595H414.736V0.000511169H639.822V0.0147552Z" fill="#4281A4"/>
</g>
<g opacity="0.8">
<path fill-rule="evenodd" clip-rule="evenodd" d="M864.089 0.000300866C863.875 0.000758956 863.662 0.00173991 863.448 0.00324232L863.448 99.297C863.241 99.2979 863.034 99.2984 862.827 99.2984C800.688 99.2984 750.315 57.7576 750.315 6.51443C750.315 4.32441 750.407 2.1521 750.588 0L864.089 -3.29562e-08L864.089 0.000300866ZM864.868 0.000949832C864.813 0.000740549 864.758 0.000565825 864.703 0.000425685C864.716 0.0003948 864.728 0.000365594 864.741 0.000338069L864.741 -5.38979e-09L864.868 0L864.868 0.000949832Z" fill="#FBCA7D"/>
<path fill-rule="evenodd" clip-rule="evenodd" d="M864.742 0.000337399C864.529 0.000809816 864.317 0.00177813 864.104 0.00324106V189.995C864.317 189.997 864.529 189.998 864.742 189.998V189.999H750.906V0L864.742 0V0.000337399ZM864.098 99.2927V0.000735765L751.18 0.000732411C751 2.15259 750.908 4.32465 750.908 6.51443C750.908 57.7576 801.022 99.2984 862.84 99.2984C863.26 99.2984 863.679 99.2965 864.098 99.2927Z" fill="#34312D"/>
</g>
</svg>
