<svg width="18" height="11" viewBox="0 0 18 11" fill="none" xmlns="http://www.w3.org/2000/svg">
<path fill-rule="evenodd" clip-rule="evenodd" d="M12.9892 0.864609L14.2852 2.16061L9.89325 6.55261L6.93225 3.59161C6.7641 3.42308 6.53582 3.32837 6.29775 3.32837C6.05968 3.32837 5.8314 3.42308 5.66325 3.59161L0.26325 9.00061C-0.08775 9.35161 -0.08775 9.91861 0.26325 10.2696C0.61425 10.6206 1.18125 10.6206 1.53225 10.2696L6.29325 5.49961L9.25425 8.46061C9.60525 8.81161 10.1722 8.81161 10.5232 8.46061L15.5542 3.43861L16.8503 4.73461C17.1292 5.01361 17.6152 4.81561 17.6152 4.41961V0.549609C17.6243 0.297609 17.4263 0.0996094 17.1742 0.0996094H13.3132C12.9082 0.0996094 12.7102 0.585609 12.9892 0.864609Z" fill="#C3CAD9"/>
</svg>
