<svg width="25" height="25" viewBox="0 0 25 25" fill="none" xmlns="http://www.w3.org/2000/svg">
<path d="M16.25 13.625C16.25 15.6961 14.5711 17.375 12.5 17.375C10.4289 17.375 8.75 15.6961 8.75 13.625C8.75 11.5539 10.4289 9.875 12.5 9.875C14.5711 9.875 16.25 11.5539 16.25 13.625Z" fill="black" fill-opacity="0.1"/>
<path d="M9.125 8.375C9.125 10.0319 7.78192 11.375 6.125 11.375C4.46808 11.375 3.125 10.0319 3.125 8.375C3.125 6.71808 4.46808 5.375 6.125 5.375C7.78192 5.375 9.125 6.71808 9.125 8.375Z" fill="black" fill-opacity="0.1"/>
<path d="M21.875 8.375C21.875 10.0319 20.5319 11.375 18.875 11.375C17.2181 11.375 15.875 10.0319 15.875 8.375C15.875 6.71808 17.2181 5.375 18.875 5.375C20.5319 5.375 21.875 6.71808 21.875 8.375Z" fill="black" fill-opacity="0.1"/>
<path fill-rule="evenodd" clip-rule="evenodd" d="M12.5 9.125C12.5 9.125 14.364 9.125 15.682 10.443C15.682 10.443 17 11.761 17 13.625C17 13.625 17 15.489 15.682 16.807C15.682 16.807 14.364 18.125 12.5 18.125C12.5 18.125 10.636 18.125 9.31802 16.807C9.31802 16.807 8 15.489 8 13.625C8 13.625 8 11.761 9.31802 10.443C9.31802 10.443 10.636 9.125 12.5 9.125ZM12.5 10.625C12.5 10.625 11.2574 10.625 10.3787 11.5037C10.3787 11.5037 9.5 12.3824 9.5 13.625C9.5 13.625 9.5 14.8676 10.3787 15.7463C10.3787 15.7463 11.2574 16.625 12.5 16.625C12.5 16.625 13.7426 16.625 14.6213 15.7463C14.6213 15.7463 15.5 14.8676 15.5 13.625C15.5 13.625 15.5 12.3824 14.6213 11.5037C14.6213 11.5037 13.7426 10.625 12.5 10.625Z" fill="#C3CAD9"/>
<path d="M22.774 14.0737L22.7743 14.074C22.8934 14.2333 23.0709 14.3388 23.2677 14.3673C23.3033 14.3724 23.3391 14.375 23.375 14.375L23.3764 14.375C23.5377 14.3747 23.6947 14.3224 23.824 14.2258C24.0135 14.0842 24.125 13.8615 24.125 13.625L24.125 13.6164C24.1232 13.4575 24.0709 13.3033 23.9758 13.176L23.9751 13.1752C23.0737 11.9694 21.727 11.296 21.727 11.296C20.3799 10.6225 18.8738 10.625 18.8738 10.625L18.875 10.625C19.2892 10.625 19.625 10.9608 19.625 11.375C19.625 11.7886 19.2903 12.1241 18.8767 12.125L22.774 14.0737Z" fill="#C3CAD9"/>
<path d="M3.94384 12.6377C4.97305 12.1231 6.12375 12.125 6.12375 12.125L6.1248 12.125H6.125C6.1366 12.125 6.14819 12.1247 6.15977 12.1242C6.34603 12.1156 6.52238 12.0378 6.65444 11.9062C6.79533 11.7658 6.87467 11.5752 6.875 11.3763L6.875 11.3752V11.375C6.875 11.3296 6.87088 11.2844 6.86271 11.2398C6.79751 10.8841 6.48783 10.6256 6.12625 10.625L6.125 10.625C4.61958 10.6228 3.27302 11.296 3.27302 11.296C1.92638 11.9694 1.02489 13.1752 1.02489 13.1752L1.02435 13.1759C0.927356 13.3057 0.875 13.4632 0.875 13.625L0.875041 13.6329C0.87539 13.6661 0.877954 13.6994 0.882716 13.7323C0.911176 13.9292 1.01667 14.1067 1.176 14.2258C1.30565 14.3227 1.46315 14.375 1.625 14.375C1.63503 14.375 1.64505 14.3748 1.65507 14.3744C1.88084 14.3653 2.09049 14.255 2.22575 14.074C2.91463 13.1523 3.94384 12.6377 3.94384 12.6377Z" fill="#C3CAD9"/>
<path d="M15.286 18.9255C16.564 19.7237 17.2254 21.0773 17.2254 21.0773L17.2258 21.0782L17.226 21.0786C17.3518 21.3362 17.6134 21.4996 17.9 21.4996L17.9205 21.4993C18.0276 21.4963 18.1328 21.4705 18.2291 21.4235C18.4866 21.2977 18.65 21.0362 18.65 20.7496L18.6497 20.729C18.6468 20.6219 18.6209 20.5167 18.5739 20.4205L18.5736 20.4199C17.7236 18.6794 16.0806 17.6532 16.0806 17.6532C14.4374 16.627 12.5 16.627 12.5 16.627C10.5626 16.627 8.91935 17.6532 8.91935 17.6532C7.27639 18.6794 6.42632 20.4199 6.42632 20.4199L6.42606 20.4204C6.37599 20.523 6.34998 20.6355 6.34998 20.7496L6.35004 20.7593C6.35108 20.839 6.36481 20.918 6.39073 20.9934C6.4554 21.1815 6.59215 21.3362 6.77089 21.4235C6.87338 21.4735 6.98593 21.4996 7.09998 21.4996L7.1172 21.4994C7.39754 21.4929 7.65088 21.3306 7.77392 21.0786C8.43536 19.724 9.71394 18.9255 9.71394 18.9255C10.9925 18.127 12.5 18.127 12.5 18.127C14.0074 18.127 15.286 18.9255 15.286 18.9255Z" fill="#C3CAD9"/>
<path d="M7.76178 6.83446C8.20946 7.31097 8.33205 7.9532 8.33205 7.9532C8.36935 8.14858 8.48273 8.32115 8.64726 8.43293C8.77159 8.51741 8.91844 8.56257 9.06875 8.56257L9.07361 8.56256C9.11917 8.56226 9.16462 8.55782 9.20938 8.54927C9.56298 8.48177 9.81875 8.17256 9.81875 7.81257L9.81874 7.80835C9.81848 7.76257 9.81403 7.71691 9.80545 7.67195C9.60113 6.60157 8.85499 5.80739 8.85499 5.80739C8.10885 5.0132 7.05329 4.74257 7.05329 4.74257C5.99773 4.47193 4.96151 4.80914 4.96151 4.80914C3.9253 5.14635 3.23117 5.98638 3.23117 5.98638C2.53705 6.8264 2.40121 7.9076 2.40121 7.9076C2.26537 8.98881 2.73012 9.97443 2.73012 9.97443C3.19487 10.9601 4.11547 11.5431 4.11547 11.5431C5.03574 12.126 6.125 12.1251 6.125 12.1251L6.12576 12.1251C6.32467 12.1249 6.51536 12.0457 6.65587 11.9049C6.79619 11.7643 6.875 11.5737 6.875 11.3751L6.875 11.3743C6.87458 10.9604 6.53892 10.6251 6.125 10.6251L6.12424 10.6251C5.47042 10.6257 4.91806 10.2759 4.91806 10.2759C4.36571 9.92606 4.08685 9.33469 4.08685 9.33469C3.808 8.74331 3.88951 8.09459 3.88951 8.09459C3.97101 7.44587 4.38749 6.94186 4.38749 6.94186C4.80396 6.43784 5.42569 6.23552 5.42569 6.23552C6.04742 6.03319 6.68076 6.19557 6.68076 6.19557C7.31409 6.35795 7.76178 6.83446 7.76178 6.83446Z" fill="#C3CAD9"/>
<path d="M20.082 10.2759C19.5296 10.6257 18.8758 10.6251 18.8758 10.6251L18.875 10.6251C18.8633 10.6251 18.8515 10.6254 18.8398 10.6259L18.1259 11.4103C18.1346 11.5966 18.2124 11.7729 18.3442 11.9049C18.4847 12.0457 18.6754 12.1249 18.8743 12.1251L18.875 12.1251C19.9643 12.126 20.8846 11.5431 20.8846 11.5431C21.8052 10.9601 22.2699 9.97443 22.2699 9.97443C22.7347 8.9888 22.5988 7.9076 22.5988 7.9076C22.463 6.8264 21.7688 5.98638 21.7688 5.98638C21.0747 5.14635 20.0385 4.80914 20.0385 4.80914C19.0023 4.47193 17.9467 4.74257 17.9467 4.74257C16.8912 5.0132 16.145 5.80739 16.145 5.80739C15.3989 6.60157 15.1946 7.67195 15.1946 7.67195C15.1857 7.7183 15.1813 7.76538 15.1813 7.81257C15.1813 7.83511 15.1823 7.85764 15.1843 7.88008C15.2145 8.21346 15.4619 8.48651 15.7906 8.54927C15.837 8.55812 15.8841 8.56257 15.9313 8.56257C15.9538 8.56257 15.9763 8.56156 15.9988 8.55953C16.3322 8.5294 16.6052 8.282 16.668 7.9532C16.7906 7.31097 17.2382 6.83446 17.2382 6.83446C17.6859 6.35795 18.3193 6.19557 18.3193 6.19557C18.9526 6.03319 19.5743 6.23552 19.5743 6.23552C20.1961 6.43784 20.6125 6.94186 20.6125 6.94186C21.029 7.44587 21.1105 8.09459 21.1105 8.09459C21.192 8.74331 20.9132 9.33469 20.9132 9.33469C20.6343 9.92606 20.082 10.2759 20.082 10.2759Z" fill="#C3CAD9"/>
</svg>
