<svg width="24" height="25" viewBox="0 0 24 25" fill="none" xmlns="http://www.w3.org/2000/svg">
<rect y="0.5" width="24" height="24" rx="8" fill="#E3F5FF"/>
<path d="M16.5 10.2071V12.5C16.5 12.7761 16.7239 13 17 13C17.2761 13 17.5 12.7761 17.5 12.5V10C17.5 9.86739 17.4473 9.74021 17.3536 9.64645L13.8536 6.14645C13.7598 6.05268 13.6326 6 13.5 6L7.5 6C7.08579 6 6.79289 6.29289 6.79289 6.29289C6.5 6.58579 6.5 7 6.5 7V12.5C6.5 12.7761 6.72386 13 7 13C7.27614 13 7.5 12.7761 7.5 12.5V7H13.2929L16.5 10.2071Z" fill="#1C1C1C"/>
<path d="M13.5 10.5H17C17.2761 10.5 17.5 10.2761 17.5 10C17.5 9.72386 17.2761 9.5 17 9.5H14V6.5C14 6.22386 13.7761 6 13.5 6C13.2239 6 13 6.22386 13 6.5V10C13 10.2761 13.2239 10.5 13.5 10.5Z" fill="#1C1C1C"/>
<path fill-rule="evenodd" clip-rule="evenodd" d="M14 18V15C14 14.7239 14.2239 14.5 14.5 14.5H15.5C15.5 14.5 16.1213 14.5 16.5607 14.9393C16.5607 14.9393 17 15.3787 17 16C17 16 17 16.6213 16.5607 17.0607C16.5607 17.0607 16.1213 17.5 15.5 17.5H15V18C15 18.2761 14.7761 18.5 14.5 18.5C14.2239 18.5 14 18.2761 14 18ZM15.5 16.5H15V15.5H15.5C15.5 15.5 15.7071 15.5 15.8536 15.6464C15.8536 15.6464 16 15.7929 16 16C16 16 16 16.2071 15.8536 16.3536C15.8536 16.3536 15.7071 16.5 15.5 16.5Z" fill="#1C1C1C"/>
<path d="M11.5 15V18C11.5 18.2761 11.7239 18.5 12 18.5C12.2761 18.5 12.5 18.2761 12.5 18V15C12.5 14.7239 12.2761 14.5 12 14.5C11.7239 14.5 11.5 14.7239 11.5 15Z" fill="#1C1C1C"/>
<path d="M7.5 18.5H9.5C9.77614 18.5 10 18.2761 10 18C10 17.7239 9.77614 17.5 9.5 17.5H8.43426L9.91603 15.2774C10.0692 15.0476 10.0071 14.7372 9.77735 14.584C9.69522 14.5292 9.59871 14.5 9.5 14.5H7.5C7.22386 14.5 7 14.7239 7 15C7 15.2761 7.22386 15.5 7.5 15.5H8.56574L7.08397 17.7226C7.02922 17.8048 7 17.9013 7 18C7 18.2761 7.22386 18.5 7.5 18.5Z" fill="#1C1C1C"/>
</svg>
