<svg width="25" height="25" viewBox="0 0 25 25" fill="none" xmlns="http://www.w3.org/2000/svg">
<path d="M3.64993 14.15C3.54767 13.606 3.49741 13.0535 3.49997 12.5C3.49878 10.6386 4.07529 8.82288 5.15002 7.30319C6.22476 5.78342 7.74463 4.6348 9.49997 4.01562V10.7656L3.64993 14.15Z" fill="#DEDFE1"/>
<path d="M13.25 12.5V3.5C13.25 3.08579 12.9142 2.75 12.5 2.75C12.0858 2.75 11.75 3.08579 11.75 3.5V12.5C11.75 12.9142 12.0858 13.25 12.5 13.25C12.9142 13.25 13.25 12.9142 13.25 12.5Z" fill="#DEDFE1"/>
<path d="M4.33479 16.3502L4.33422 16.3506C4.16198 16.45 4.03631 16.6139 3.98487 16.806C3.96793 16.8693 3.95935 16.9345 3.95935 17C3.95935 17.0079 3.95948 17.0159 3.95973 17.0238C3.96365 17.1474 3.99806 17.2681 4.05991 17.3751C4.1939 17.6071 4.44146 17.75 4.70935 17.75C4.721 17.75 4.73265 17.7497 4.74429 17.7492C4.86403 17.7436 4.98068 17.7094 5.08448 17.6494L5.08504 17.6491L20.6657 8.64944C20.8977 8.51545 21.0406 8.2679 21.0406 8C21.0406 7.98835 21.0403 7.9767 21.0398 7.96506C21.0342 7.84532 21 7.72867 20.94 7.62487C20.8406 7.45263 20.6767 7.32696 20.4846 7.27552C20.4213 7.25858 20.3561 7.25 20.2906 7.25C20.2827 7.25 20.2747 7.25013 20.2668 7.25038C20.1432 7.2543 20.0225 7.28871 19.9155 7.35056L4.33479 16.3502Z" fill="#DEDFE1"/>
<path fill-rule="evenodd" clip-rule="evenodd" d="M9.87552 11.4148L4.02552 14.7992C3.85334 14.8988 3.64865 14.9259 3.45647 14.8746C3.26429 14.8233 3.10037 14.6977 3.00076 14.5256C2.95827 14.4521 2.92855 14.372 2.91287 14.2886C2.91287 14.2886 2.7458 13.4004 2.74995 12.4965C2.74995 12.4965 2.74797 9.40086 4.53767 6.87012C4.53767 6.87012 6.32736 4.33939 9.25047 3.30833C9.43805 3.24217 9.64424 3.25323 9.82367 3.33909C10.0031 3.42494 10.1411 3.57856 10.2072 3.76615C10.2355 3.84629 10.2499 3.93065 10.2499 4.01563V10.7656C10.2499 11.0333 10.1072 11.2808 9.87552 11.4148ZM4.2594 12.9309L8.74995 10.3331V5.14679C8.74995 5.14679 6.95746 6.04627 5.76237 7.73621C5.76237 7.73621 4.24828 9.87723 4.24994 12.5034C4.24994 12.5034 4.24895 12.7177 4.2594 12.9309Z" fill="#C3CAD9"/>
<path d="M8.41922 19.6706C6.50139 18.5794 5.38434 16.6766 5.38434 16.6766C5.28364 16.505 5.11892 16.3805 4.92642 16.3304C4.86475 16.3144 4.80128 16.3062 4.73755 16.3062C4.72786 16.3062 4.71817 16.3064 4.70849 16.3068C4.58494 16.3116 4.46449 16.3469 4.35786 16.4095C4.12846 16.5441 3.98755 16.7902 3.98755 17.0562L3.98755 17.0584C3.98793 17.1912 4.02355 17.3214 4.09076 17.4359C5.41091 19.6848 7.67744 20.9744 7.67744 20.9744C9.94397 22.2639 12.5516 22.2499 12.5516 22.2499C15.1593 22.2358 17.4118 20.9218 17.4118 20.9218C19.6643 19.6079 20.9601 17.3449 20.9601 17.3449C22.2559 15.0819 22.249 12.4742 22.249 12.4742C22.2421 9.86655 20.9344 7.61046 20.9344 7.61046C19.6266 5.35437 17.3672 4.05233 17.3672 4.05233C15.1078 2.7503 12.5001 2.75 12.5001 2.75C12.4543 2.75 12.4086 2.75419 12.3637 2.76251C12.0081 2.82826 11.7501 3.13834 11.75 3.49992C11.75 3.51196 11.7503 3.52397 11.7509 3.53594C11.7598 3.72218 11.8378 3.89841 11.9697 4.03027C12.1103 4.17094 12.3011 4.24998 12.5 4.25H12.5003C14.7066 4.25033 16.6183 5.35197 16.6183 5.35197C18.5301 6.4537 19.6366 8.36269 19.6366 8.36269C20.7432 10.2717 20.749 12.4782 20.749 12.4782C20.7548 14.6847 19.6584 16.5995 19.6584 16.5995C18.5619 18.5144 16.656 19.6262 16.656 19.6262C14.75 20.738 12.5435 20.7499 12.5435 20.7499C10.3371 20.7618 8.41922 19.6706 8.41922 19.6706Z" fill="#C3CAD9"/>
</svg>
