<svg width="25" height="25" viewBox="0 0 25 25" fill="none" xmlns="http://www.w3.org/2000/svg">
<path d="M15.8656 8.00977C16.1228 8.72868 16.2529 9.48688 16.25 10.2504C16.25 12.0406 15.5389 13.7575 14.273 15.0234C13.0071 16.2892 11.2902 17.0004 9.50002 17.0004H9.1344C9.59976 18.3167 10.4619 19.4563 11.6019 20.2622C12.742 21.0681 14.1039 21.5007 15.5 21.5004H21.6875C21.8367 21.5004 21.9798 21.4411 22.0853 21.3356C22.1908 21.2301 22.25 21.0871 22.25 20.9379V14.7504C22.2524 13.0227 21.5914 11.3601 20.4033 10.1057C19.2153 8.85136 17.5909 8.10107 15.8656 8.00977Z" fill="black" fill-opacity="0.1"/>
<path fill-rule="evenodd" clip-rule="evenodd" d="M12.3701 3.3209C12.3701 3.3209 10.9918 2.75 9.5 2.75H9.49946C9.49946 2.75 8.00791 2.7501 6.62987 3.3209C6.62987 3.3209 5.25159 3.89181 4.1967 4.9467C4.1967 4.9467 3.14181 6.00159 2.5709 7.37987C2.5709 7.37987 2 8.75816 2 10.25V16.4375C2 16.4375 2 16.9812 2.38442 17.3656C2.38442 17.3656 2.76885 17.75 3.3125 17.75H9.5C9.5 17.75 10.9918 17.75 12.3701 17.1791C12.3701 17.1791 13.7484 16.6082 14.8033 15.5533C14.8033 15.5533 15.8582 14.4984 16.4291 13.1201C16.4291 13.1201 17 11.7418 17 10.25C17 10.25 17 8.75816 16.4291 7.37987C16.4291 7.37987 15.8582 6.00159 14.8033 4.9467C14.8033 4.9467 13.7484 3.89181 12.3701 3.3209ZM15.5 10.25C15.5 10.25 15.5 9.05653 15.0433 7.9539C15.0433 7.9539 14.5866 6.85127 13.7426 6.00736C13.7426 6.00736 12.8987 5.16345 11.7961 4.70672C11.7961 4.70672 10.6937 4.25009 9.50049 4.25L9.5 4.25C9.5 4.25 8.30653 4.25 7.2039 4.70672C7.2039 4.70672 6.10127 5.16345 5.25736 6.00736C5.25736 6.00736 4.41345 6.85127 3.95672 7.9539C3.95672 7.9539 3.5 9.05653 3.5 10.25L3.5 16.25H9.5C9.5 16.25 10.6935 16.25 11.7961 15.7933C11.7961 15.7933 12.8987 15.3366 13.7426 14.4926C13.7426 14.4926 14.5866 13.6487 15.0433 12.5461C15.0433 12.5461 15.5 11.4435 15.5 10.25Z" fill="#C3CAD9"/>
<path d="M15.9053 7.26081C15.8921 7.26012 15.8789 7.25977 15.8657 7.25977C15.8331 7.25977 15.8006 7.26188 15.7683 7.2661C15.4098 7.31302 15.1358 7.60905 15.1167 7.97013C15.116 7.98333 15.1156 7.99655 15.1156 8.00977C15.1156 8.02068 15.1159 8.03159 15.1164 8.04249C15.124 8.21626 15.1917 8.382 15.308 8.51133C15.4411 8.65922 15.6274 8.74821 15.826 8.75872C18.2142 8.88511 19.8588 10.6215 19.8588 10.6215C21.5034 12.3578 21.5 14.7493 21.5 14.7493V20.7504H15.5C13.5924 20.7509 12.0349 19.6498 12.0349 19.6498C10.4776 18.5489 9.8417 16.7509 9.8417 16.7509L9.84151 16.7504C9.73556 16.4507 9.45224 16.2504 9.1344 16.2504L9.1252 16.2504C9.04313 16.2515 8.96178 16.2659 8.8844 16.2933C8.69686 16.3596 8.54335 16.4977 8.45762 16.6772C8.40942 16.7781 8.3844 16.8885 8.3844 17.0004L8.38458 17.0167C8.3863 17.0963 8.40072 17.1752 8.42729 17.2504C9.22206 19.4983 11.169 20.8746 11.169 20.8746C13.1159 22.251 15.5 22.2504 15.5 22.2504H21.6875C22.2312 22.2504 22.6156 21.866 22.6156 21.866C23 21.4815 23 20.9379 23 20.9379V14.7514C23.002 13.3115 22.47 11.9735 22.47 11.9735C21.938 10.6354 20.9478 9.58996 20.9478 9.58996C19.9577 8.54452 18.6504 7.94072 18.6504 7.94072C17.3434 7.33702 15.9058 7.26084 15.9058 7.26084L15.9053 7.26081Z" fill="#C3CAD9"/>
</svg>
