<svg width="24" height="25" viewBox="0 0 24 25" fill="none" xmlns="http://www.w3.org/2000/svg">
<rect y="0.5" width="24" height="24" rx="8" fill="#E3F5FF"/>
<path d="M13.5 6.5V10H17L13.5 6.5Z" fill="#1C1C1C"/>
<path d="M16.5 10.2071V12.5C16.5 12.7761 16.7239 13 17 13C17.2761 13 17.5 12.7761 17.5 12.5V10C17.5 9.86739 17.4473 9.74021 17.3536 9.64645L13.8536 6.14645C13.7598 6.05268 13.6326 6 13.5 6L7.5 6C7.08579 6 6.79289 6.29289 6.79289 6.29289C6.5 6.58579 6.5 7 6.5 7V12.5C6.5 12.7761 6.72386 13 7 13C7.27614 13 7.5 12.7761 7.5 12.5V7H13.2929L16.5 10.2071Z" fill="#1C1C1C"/>
<path d="M13.5 10.5H17C17.2761 10.5 17.5 10.2761 17.5 10C17.5 9.72386 17.2761 9.5 17 9.5H14V6.5C14 6.22386 13.7761 6 13.5 6C13.2239 6 13 6.22386 13 6.5V10C13 10.2761 13.2239 10.5 13.5 10.5Z" fill="#1C1C1C"/>
<path fill-rule="evenodd" clip-rule="evenodd" d="M10 18V15C10 14.7239 10.2239 14.5 10.5 14.5H11.5C11.5 14.5 12.1213 14.5 12.5607 14.9393C12.5607 14.9393 13 15.3787 13 16C13 16 13 16.6213 12.5607 17.0607C12.5607 17.0607 12.1213 17.5 11.5 17.5H11V18C11 18.2761 10.7761 18.5 10.5 18.5C10.2239 18.5 10 18.2761 10 18ZM11.5 16.5H11V15.5H11.5C11.5 15.5 11.7071 15.5 11.8536 15.6464C11.8536 15.6464 12 15.7929 12 16C12 16 12 16.2071 11.8536 16.3536C11.8536 16.3536 11.7071 16.5 11.5 16.5Z" fill="#1C1C1C"/>
<path d="M7.14645 17.3536C7 17.2071 7 17 7 17C7 16.7239 6.77614 16.5 6.5 16.5C6.22386 16.5 6 16.7239 6 17C6 17.6213 6.43934 18.0607 6.43934 18.0607C6.87868 18.5 7.5 18.5 7.5 18.5C8.12132 18.5 8.56066 18.0607 8.56066 18.0607C9 17.6213 9 17 9 17V15C9 14.7239 8.77614 14.5 8.5 14.5C8.22386 14.5 8 14.7239 8 15V17C8 17.2071 7.85355 17.3536 7.85355 17.3536C7.70711 17.5 7.5 17.5 7.5 17.5C7.29289 17.5 7.14645 17.3536 7.14645 17.3536Z" fill="#1C1C1C"/>
<path d="M15.3759 15.5C15.6273 15.4996 15.8303 15.6477 15.8303 15.6477C15.9159 15.7101 16.0191 15.7438 16.125 15.7438C16.1336 15.7438 16.1422 15.7435 16.1508 15.7431C16.3013 15.7353 16.4402 15.6601 16.5289 15.5384C16.5914 15.4529 16.625 15.3497 16.625 15.2438L16.625 15.2388C16.6247 15.2146 16.6227 15.1904 16.619 15.1665C16.5985 15.0355 16.5268 14.918 16.4197 14.8398C15.9524 14.499 15.3741 14.5 15.3741 14.5C14.5832 14.5 14.0329 15.1005 14.0329 15.1005C13.5 15.682 13.5 16.5 13.5 16.5C13.5 17.318 14.0329 17.8995 14.0329 17.8995C14.5832 18.5 15.375 18.5 15.375 18.5C15.8545 18.4935 16.2657 18.2605 16.2657 18.2605C16.677 18.0274 16.9254 17.6252 16.9254 17.6252C16.9742 17.5463 17 17.4553 17 17.3625V16.625C17 16.3489 16.7761 16.125 16.5 16.125H15.75C15.4739 16.125 15.25 16.3489 15.25 16.625C15.25 16.9011 15.4739 17.125 15.75 17.125H16V17.2028C15.9047 17.3157 15.7727 17.3905 15.7727 17.3905C15.5845 17.4971 15.375 17.5 15.375 17.5C15.0232 17.5 14.7702 17.2239 14.7702 17.2239C14.5 16.9291 14.5 16.5 14.5 16.5C14.5 16.0709 14.7702 15.7761 14.7702 15.7761C15.0232 15.5 15.3759 15.5 15.3759 15.5Z" fill="#1C1C1C"/>
</svg>
