<svg width="25" height="25" viewBox="0 0 25 25" fill="none" xmlns="http://www.w3.org/2000/svg">
<path d="M8 20.75H5C4.80115 20.75 4.61035 20.671 4.46973 20.5304C4.3291 20.3896 4.25 20.1989 4.25 20V5C4.25 4.80106 4.3291 4.61035 4.46973 4.46964C4.61035 4.32901 4.80115 4.25 5 4.25H8V20.75Z" fill="black" fill-opacity="0.1"/>
<path d="M11 11.75H17C17.4142 11.75 17.75 11.4142 17.75 11C17.75 10.5858 17.4142 10.25 17 10.25H11C10.5858 10.25 10.25 10.5858 10.25 11C10.25 11.4142 10.5858 11.75 11 11.75Z" fill="#C3CAD9"/>
<path d="M11 14.75H17C17.4142 14.75 17.75 14.4142 17.75 14C17.75 13.5858 17.4142 13.25 17 13.25H11C10.5858 13.25 10.25 13.5858 10.25 14C10.25 14.4142 10.5858 14.75 11 14.75Z" fill="#C3CAD9"/>
<path fill-rule="evenodd" clip-rule="evenodd" d="M3.5 5C3.5 5 3.5 4.37868 3.93934 3.93934C3.93934 3.93934 4.37868 3.5 5 3.5H20C20 3.5 20.6213 3.5 21.0607 3.93934C21.0607 3.93934 21.5 4.37868 21.5 5V20C21.5 20 21.5 20.6213 21.0607 21.0607C21.0607 21.0607 20.6213 21.5 20 21.5H5C5 21.5 4.37868 21.5 3.93934 21.0607C3.93934 21.0607 3.5 20.6213 3.5 20V5ZM5 5V20H20V5H5Z" fill="#C3CAD9"/>
<path d="M7.25 4.25V20.75C7.25 21.1642 7.58579 21.5 8 21.5C8.41421 21.5 8.75 21.1642 8.75 20.75V4.25C8.75 3.83579 8.41421 3.5 8 3.5C7.58579 3.5 7.25 3.83579 7.25 4.25Z" fill="#C3CAD9"/>
</svg>
