<svg width="64" height="64" viewBox="0 0 64 64" fill="none" xmlns="http://www.w3.org/2000/svg">
  <g filter="url(#filter0_d_5_15640)">
    <rect x="5" y="3" width="54" height="54" rx="27" fill="white" />
    <path fill-rule="evenodd" clip-rule="evenodd"
      d="M31.6013 35.1276L35.3363 37.3866C36.0203 37.8006 36.8573 37.1886 36.6773 36.4146L35.6873 32.1666L38.9903 29.3046C39.5933 28.7826 39.2693 27.7926 38.4773 27.7296L34.1303 27.3606L32.4293 23.3466C32.1233 22.6176 31.0793 22.6176 30.7733 23.3466L29.0723 27.3516L24.7253 27.7206C23.9333 27.7836 23.6093 28.7736 24.2123 29.2956L27.5153 32.1576L26.5253 36.4056C26.3453 37.1796 27.1823 37.7916 27.8663 37.3776L31.6013 35.1276Z"
      fill="#4D5E80" />
  </g>
  <defs>
    <filter id="filter0_d_5_15640" x="0" y="0" width="64" height="64" filterUnits="userSpaceOnUse"
      color-interpolation-filters="sRGB">
      <feFlood flood-opacity="0" result="BackgroundImageFix" />
      <feColorMatrix in="SourceAlpha" type="matrix"
        values="0 0 0 0 0 0 0 0 0 0 0 0 0 0 0 0 0 0 127 0" result="hardAlpha" />
      <feOffset dy="2" />
      <feGaussianBlur stdDeviation="2.5" />
      <feColorMatrix type="matrix"
        values="0 0 0 0 0.14902 0 0 0 0 0.2 0 0 0 0 0.301961 0 0 0 0.05 0" />
      <feBlend mode="normal" in2="BackgroundImageFix" result="effect1_dropShadow_5_15640" />
      <feBlend mode="normal" in="SourceGraphic" in2="effect1_dropShadow_5_15640" result="shape" />
    </filter>
  </defs>
</svg>
  