<svg width="27" height="23" viewBox="0 0 27 23" fill="none" xmlns="http://www.w3.org/2000/svg">
<path fill-rule="evenodd" clip-rule="evenodd" d="M13.5953 0.960938C10.6138 0.960938 8.21899 3.6232 8.21899 6.93763C8.21899 10.253 10.6136 12.9155 13.5953 12.9155C16.5769 12.9155 18.9716 10.253 18.9716 6.93763C18.9716 3.6232 16.5768 0.960938 13.5953 0.960938ZM13.5953 2.90637C15.6103 2.90637 17.2216 4.69763 17.2216 6.93763C17.2216 9.17866 15.6104 10.9701 13.5953 10.9701C11.5802 10.9701 9.96899 9.17866 9.96899 6.93763C9.96899 4.69763 11.5803 2.90637 13.5953 2.90637ZM7.00622 2.18251C7.48947 2.18251 7.88122 2.61801 7.88122 3.15522C7.88122 3.69244 7.48947 4.12794 7.00622 4.12794C5.61979 4.12794 4.49536 5.3774 4.49536 6.91801C4.49536 8.45863 5.61979 9.70808 7.00622 9.70808C7.48947 9.70808 7.88122 10.1436 7.88122 10.6808C7.88122 11.218 7.48947 11.6535 7.00622 11.6535C4.65346 11.6535 2.74536 9.53325 2.74536 6.91801C2.74536 4.30277 4.65346 2.18251 7.00622 2.18251ZM24.4561 6.91801C24.4561 4.30277 22.548 2.18251 20.1952 2.18251C19.712 2.18251 19.3202 2.61801 19.3202 3.15522C19.3202 3.69244 19.712 4.12794 20.1952 4.12794C21.5817 4.12794 22.7061 5.3774 22.7061 6.91801C22.7061 8.45863 21.5817 9.70808 20.1952 9.70808C19.712 9.70808 19.3202 10.1436 19.3202 10.6808C19.3202 11.218 19.712 11.6535 20.1952 11.6535C22.548 11.6535 24.4561 9.53325 24.4561 6.91801ZM23.5797 14.0828C23.0195 13.9423 22.4208 13.8462 21.812 13.7995C21.3299 13.7626 20.9121 14.1671 20.8789 14.703C20.8457 15.239 21.2095 15.7034 21.6916 15.7403C22.2126 15.7803 22.7231 15.8622 23.2195 15.9864C23.9914 16.1548 24.4947 16.4339 24.6196 16.7249C24.7136 16.9446 24.7136 17.2028 24.6188 17.4251C24.4955 17.7132 23.9964 17.9909 23.2354 18.1649C22.762 18.2731 22.4572 18.7874 22.5545 19.3136C22.6519 19.8398 23.1145 20.1786 23.5878 20.0704C24.8457 19.7829 25.7672 19.2701 26.1995 18.2598C26.52 17.5086 26.52 16.6375 26.1995 15.8883C25.7642 14.8741 24.8269 14.3543 23.5797 14.0828ZM6.32257 14.703C6.28932 14.1671 5.87155 13.7626 5.38944 13.7995C4.78069 13.8462 4.18199 13.9423 3.59775 14.0885L3.3569 14.1451C2.25134 14.4259 1.4079 14.942 1.00305 15.8881C0.681219 16.6367 0.681219 17.5094 1.00339 18.2606C1.4338 19.2699 2.3552 19.7828 3.61362 20.0704C4.08697 20.1786 4.5496 19.8398 4.64693 19.3136C4.74427 18.7874 4.43945 18.2731 3.96611 18.1649C3.20534 17.991 2.70673 17.7134 2.58386 17.4253C2.48812 17.2021 2.48812 16.9453 2.58268 16.7254C2.7075 16.4337 3.21029 16.1548 3.95798 15.992L4.34674 15.9036C4.73429 15.8239 5.11914 15.7703 5.50985 15.7403C5.99195 15.7034 6.35582 15.239 6.32257 14.703ZM5.69617 18.7902C5.69617 15.6958 8.57543 14.6076 13.5953 14.6076L13.9509 14.6094C18.761 14.6596 21.4944 15.7504 21.4944 18.7676C21.4944 21.7139 18.8816 22.8421 14.2976 22.9428L13.5953 22.9503C8.56392 22.9503 5.69617 21.8812 5.69617 18.7902ZM19.7444 18.7676C19.7444 17.3273 17.6671 16.553 13.5953 16.553C9.52745 16.553 7.44617 17.3396 7.44617 18.7902C7.44617 20.2307 9.52282 21.0049 13.5953 21.0049C17.6619 21.0049 19.7444 20.2176 19.7444 18.7676Z" fill="#262626"/>
</svg>
